# xmcd
#
# Track frame offsets: 
#        150
#        15128
#        29200
#        52208
#        66058
#        82033
#        96838
#        116883
#        131655
#        145540
#        163478
#        173135
#        185695
#        199833
#        225923
#        245323
#        262290
#
# Disc length: 3776 seconds
#
# Revision: 1
# Processed by: cddbd v1.5.2PL0 Copyright (c) Steve Scherf et al.
# Submitted via: ExactAudioCopy v1.0b3
#
DISCID=f80ebe11
DTITLE=Narimichi Kawabata, Daniel-Ben Pienaar - Liebesleid
DYEAR=2001
DGENRE=Classical
TTITLE0=Liebesleid
TTITLE1=Melodie No.3 - from 'Souvenir d'un lieu cher', Op.42
TTITLE2=Prelude and Allegro - in the style of G. Pugnani
TTITLE3=Sicilienne
TTITLE4=Spanish Dance
TTITLE5=Cantabile
TTITLE6=La Campanella
TTITLE7=From the Opera 'Porgy and Bess' - Summertime
TTITLE8=From the Opera 'Porgy and Bess' - My Man's Gone Now
TTITLE9=From the Opera 'Porgy and Bess' - Bess, You is My Woman Now
TTITLE10=From the Opera 'Porgy and Bess' - It Ain't Necessarily So
TTITLE11=From the Opera 'Porgy and Bess' - Tempo di Blues
TTITLE12=Liebesfreud
TTITLE13=Caprice Basque, Op.24
TTITLE14=Slavonic Dance, Op.72-2
TTITLE15=Csárdás
TTITLE16=Air from Suite No.3
EXTD=YEAR: 2001
EXTT0=
EXTT1=
EXTT2=
EXTT3=
EXTT4=
EXTT5=
EXTT6=
EXTT7=
EXTT8=
EXTT9=
EXTT10=
EXTT11=
EXTT12=
EXTT13=
EXTT14=
EXTT15=
EXTT16=
PLAYORDER=
